<svg width="22" height="22" viewBox="0 0 22 22" fill="none" xmlns="http://www.w3.org/2000/svg">
<g clip-path="url(#clip0_2_348)">
<path d="M10.5215 13.0344C11.0957 13.0344 11.5913 12.8293 12.0083 12.4192C12.4253 12.009 12.6338 11.5168 12.6338 10.9426C12.6338 10.7102 12.5962 10.4915 12.521 10.2864C12.4458 10.0813 12.3467 9.88989 12.2236 9.71216C12.0322 9.45239 11.7896 9.2439 11.4956 9.08667C11.2017 8.92944 10.877 8.85083 10.5215 8.85083C10.166 8.85083 9.84131 8.92944 9.54736 9.08667C9.25342 9.2439 9.01074 9.45239 8.81934 9.71216C8.69629 9.88989 8.60059 10.0813 8.53223 10.2864C8.46387 10.4915 8.42969 10.7102 8.42969 10.9426C8.41602 11.5168 8.61768 12.009 9.03467 12.4192C9.45166 12.8293 9.94727 13.0344 10.5215 13.0344ZM15.1152 8.37915V6.34888H13.085V8.37915H15.1152ZM10.5215 0.442627C9.07227 0.442627 7.71191 0.716064 6.44043 1.26294C5.16895 1.82349 4.05811 2.57886 3.10791 3.52905C2.15771 4.47925 1.40234 5.59009 0.841797 6.86157C0.294922 8.13306 0.0214844 9.49341 0.0214844 10.9426C0.0214844 12.3918 0.294922 13.7522 0.841797 15.0237C1.40234 16.2952 2.15771 17.406 3.10791 18.3562C4.05811 19.3064 5.16895 20.0618 6.44043 20.6223C7.71191 21.1692 9.07227 21.4426 10.5215 21.4426C11.9707 21.4426 13.3311 21.1692 14.6025 20.6223C15.874 20.0618 16.9849 19.3064 17.9351 18.3562C18.8853 17.406 19.6406 16.2952 20.2012 15.0237C20.748 13.7522 21.0215 12.3918 21.0215 10.9426C21.0215 9.49341 20.748 8.13306 20.2012 6.86157C19.6406 5.59009 18.8853 4.47925 17.9351 3.52905C16.9849 2.57886 15.874 1.82349 14.6025 1.26294C13.3311 0.716064 11.9707 0.442627 10.5215 0.442627ZM16.4893 9.71216V14.6135C16.4893 15.2424 16.2637 15.7825 15.8125 16.2336C15.3613 16.6848 14.8213 16.9104 14.1924 16.9104H6.85059C6.22168 16.9104 5.68164 16.6848 5.23047 16.2336C4.7793 15.7825 4.55371 15.2424 4.55371 14.6135V7.27173C4.55371 6.64282 4.7793 6.10278 5.23047 5.65161C5.68164 5.20044 6.22168 4.97485 6.85059 4.97485H14.1924C14.8213 4.97485 15.3613 5.20044 15.8125 5.65161C16.2637 6.10278 16.4893 6.64282 16.4893 7.27173V9.71216ZM13.7822 10.9426C13.7822 11.845 13.4644 12.614 12.8286 13.2498C12.1929 13.8855 11.4238 14.2034 10.5215 14.2034C9.61914 14.2034 8.8501 13.8855 8.21436 13.2498C7.57861 12.614 7.26074 11.845 7.26074 10.9426C7.26074 10.7239 7.28125 10.512 7.32227 10.3069C7.36328 10.1018 7.41797 9.90356 7.48633 9.71216H5.72266V14.6135C5.72266 14.928 5.83203 15.1946 6.05078 15.4133C6.26953 15.6321 6.53613 15.7415 6.85059 15.7415H14.1924C14.5068 15.7415 14.7734 15.6321 14.9922 15.4133C15.2109 15.1946 15.3203 14.928 15.3203 14.6135V9.71216H13.5361C13.6182 9.90356 13.6797 10.1018 13.7207 10.3069C13.7617 10.512 13.7822 10.7239 13.7822 10.9426Z" fill="#D4D4D4"/>
</g>
<defs>
<clipPath id="clip0_2_348">
<rect width="21" height="21" fill="white" transform="matrix(1 0 0 -1 0.0214844 21.4421)"/>
</clipPath>
</defs>
</svg>
