<svg width="22" height="22" viewBox="0 0 22 22" fill="none" xmlns="http://www.w3.org/2000/svg">
<g clip-path="url(#clip0_2_344)">
<path d="M11.0664 0.442627C9.61719 0.442627 8.25684 0.716064 6.98535 1.26294C5.71387 1.82349 4.60303 2.57886 3.65283 3.52905C2.70264 4.47925 1.94727 5.59009 1.38672 6.86157C0.839844 8.13306 0.566406 9.49341 0.566406 10.9426C0.566406 12.3918 0.839844 13.7522 1.38672 15.0237C1.94727 16.2952 2.70264 17.406 3.65283 18.3562C4.60303 19.3064 5.71387 20.0618 6.98535 20.6223C8.25684 21.1692 9.61719 21.4426 11.0664 21.4426C12.5156 21.4426 13.876 21.1692 15.1475 20.6223C16.4189 20.0618 17.5298 19.3064 18.48 18.3562C19.4302 17.406 20.1855 16.2952 20.7461 15.0237C21.293 13.7522 21.5664 12.3918 21.5664 10.9426C21.5664 9.49341 21.293 8.13306 20.7461 6.86157C20.1855 5.59009 19.4302 4.47925 18.48 3.52905C17.5298 2.57886 16.4189 1.82349 15.1475 1.26294C13.876 0.716064 12.5156 0.442627 11.0664 0.442627ZM13.6709 11.3118H11.9688C11.9688 11.9954 11.9688 12.6995 11.9688 13.4241C11.9688 14.135 11.9688 14.7878 11.9688 15.3826C11.9688 15.9773 11.9688 16.4592 11.9688 16.8284C11.9688 17.2112 11.9688 17.4026 11.9688 17.4026H9.44629C9.44629 17.4026 9.44629 17.2112 9.44629 16.8284C9.44629 16.4592 9.44629 15.9807 9.44629 15.3928C9.44629 14.8049 9.44629 14.1487 9.44629 13.4241C9.44629 12.7131 9.44629 12.009 9.44629 11.3118H8.23633V9.15845H9.44629V7.76392C9.44629 7.27173 9.61035 6.72485 9.93848 6.12329C10.2666 5.52173 10.9502 5.22095 11.9893 5.22095H13.876V7.31274C13.876 7.31274 13.6743 7.31274 13.271 7.31274C12.8677 7.31274 12.6113 7.31274 12.502 7.31274C12.3926 7.31274 12.2764 7.35034 12.1533 7.42554C12.0303 7.50073 11.9688 7.65454 11.9688 7.88696V9.15845H13.8965L13.6709 11.3118Z" fill="#D4D4D4"/>
</g>
<defs>
<clipPath id="clip0_2_344">
<rect width="21" height="21" fill="white" transform="matrix(1 0 0 -1 0.567383 21.4421)"/>
</clipPath>
</defs>
</svg>
