<svg width="22" height="22" viewBox="0 0 22 22" fill="none" xmlns="http://www.w3.org/2000/svg">
<g clip-path="url(#clip0_2_346)">
<path d="M11.2949 0.442627C9.8457 0.442627 8.48535 0.716064 7.21387 1.26294C5.94238 1.82349 4.83154 2.57886 3.88135 3.52905C2.93115 4.47925 2.17578 5.59009 1.61523 6.86157C1.06836 8.13306 0.794922 9.49341 0.794922 10.9426C0.794922 12.3918 1.06836 13.7522 1.61523 15.0237C2.17578 16.2952 2.93115 17.406 3.88135 18.3562C4.83154 19.3064 5.94238 20.0618 7.21387 20.6223C8.48535 21.1692 9.8457 21.4426 11.2949 21.4426C12.7441 21.4426 14.1045 21.1692 15.376 20.6223C16.6475 20.0618 17.7583 19.3064 18.7085 18.3562C19.6587 17.406 20.4141 16.2952 20.9746 15.0237C21.5215 13.7522 21.7949 12.3918 21.7949 10.9426C21.7949 9.49341 21.5215 8.13306 20.9746 6.86157C20.4141 5.59009 19.6587 4.47925 18.7085 3.52905C17.7583 2.57886 16.6475 1.82349 15.376 1.26294C14.1045 0.716064 12.7441 0.442627 11.2949 0.442627ZM15.9707 8.54321C15.9844 8.5979 15.9912 8.64917 15.9912 8.69702C15.9912 8.74487 15.9912 8.79614 15.9912 8.85083C15.9912 9.65747 15.8408 10.4641 15.54 11.2708C15.2393 12.0911 14.7983 12.8293 14.2173 13.4856C13.6362 14.1418 12.915 14.6819 12.0537 15.1057C11.2061 15.5159 10.2217 15.7209 9.10059 15.7209C8.43066 15.7209 7.78125 15.6287 7.15234 15.4441C6.52344 15.2595 5.94238 14.9895 5.40918 14.634C5.50488 14.6477 5.60059 14.658 5.69629 14.6648C5.79199 14.6716 5.8877 14.675 5.9834 14.675C6.54395 14.675 7.08057 14.5828 7.59326 14.3982C8.10596 14.2136 8.56738 13.9641 8.97754 13.6497C8.45801 13.636 7.98975 13.4719 7.57275 13.1575C7.15576 12.843 6.87207 12.4465 6.72168 11.968C6.80371 11.9817 6.88232 11.9919 6.95752 11.9988C7.03271 12.0056 7.10449 12.009 7.17285 12.009C7.28223 12.009 7.3916 12.0022 7.50098 11.9885C7.61035 11.9749 7.71289 11.9543 7.80859 11.927C7.26172 11.8176 6.80371 11.5408 6.43457 11.0964C6.06543 10.6521 5.88086 10.136 5.88086 9.5481C5.88086 9.5481 5.88086 9.54468 5.88086 9.53784C5.88086 9.53101 5.88086 9.52759 5.88086 9.52759C6.04492 9.60962 6.21924 9.67798 6.40381 9.73267C6.58838 9.78735 6.77637 9.82153 6.96777 9.83521C6.65332 9.61646 6.39697 9.32935 6.19873 8.97388C6.00049 8.61841 5.90137 8.22876 5.90137 7.80493C5.90137 7.58618 5.92871 7.37427 5.9834 7.16919C6.03809 6.96411 6.12012 6.77271 6.22949 6.59497C6.81738 7.33325 7.54199 7.92798 8.40332 8.37915C9.26465 8.83032 10.2012 9.07642 11.2129 9.11743C11.1855 9.0354 11.1685 8.94653 11.1616 8.85083C11.1548 8.75513 11.1514 8.65942 11.1514 8.56372C11.1514 7.90747 11.3872 7.34351 11.8589 6.87183C12.3306 6.40015 12.8945 6.16431 13.5508 6.16431C13.9062 6.16431 14.2344 6.23267 14.5352 6.36938C14.8359 6.5061 15.0957 6.69067 15.3145 6.9231C15.6016 6.86841 15.8716 6.78979 16.1245 6.68726C16.3774 6.58472 16.6201 6.46509 16.8525 6.32837C16.7705 6.61548 16.6372 6.87183 16.4526 7.09741C16.2681 7.323 16.0459 7.51099 15.7861 7.66138C16.0322 7.63403 16.2715 7.5896 16.5039 7.52808C16.7363 7.46655 16.9619 7.38794 17.1807 7.29224C17.0166 7.53833 16.8354 7.76392 16.6372 7.96899C16.439 8.17407 16.2168 8.36548 15.9707 8.54321Z" fill="#D4D4D4"/>
</g>
<defs>
<clipPath id="clip0_2_346">
<rect width="21" height="21" fill="white" transform="matrix(1 0 0 -1 0.794922 21.4421)"/>
</clipPath>
</defs>
</svg>
