<svg width="115" height="22" viewBox="0 0 115 22" fill="none" xmlns="http://www.w3.org/2000/svg">
<path d="M0.0126133 14.4732C0.0793321 12.7198 -0.08121 10.5743 0.110606 8.431C0.533854 3.71899 3.78639 0.612403 8.53385 0.410162C10.7085 0.318424 12.7413 0.716651 14.5073 2.06979C14.5802 2.12608 14.6553 2.17821 14.7199 2.24076C15.0202 2.5264 15.3287 3.04763 15.6165 3.03721C15.925 3.0247 16.1961 2.49095 16.513 2.21991C17.6868 1.22955 19.065 0.689547 20.5766 0.497731C22.4468 0.260045 24.2941 0.374718 26.0434 1.12947C28.9415 2.37628 30.476 4.66556 30.9868 7.70543C31.1473 8.65826 31.2078 9.61942 31.2078 10.5827C31.2099 13.8561 31.1995 17.1294 31.2203 20.4007C31.2224 20.8448 31.089 20.9345 30.6741 20.9262C29.2688 20.9011 27.8635 20.8949 26.4603 20.9282C25.9579 20.9408 25.8599 20.7698 25.862 20.3069C25.8807 17.0335 25.8745 13.7602 25.8703 10.4889C25.8703 9.90715 25.8557 9.32962 25.764 8.75C25.3637 6.1855 23.727 5.33483 21.3939 5.60379C19.4862 5.82271 18.4583 7.10288 18.2998 9.28792C18.2706 9.70491 18.2664 10.124 18.2644 10.541C18.2623 13.7768 18.2477 17.0148 18.2769 20.2506C18.2831 20.8282 18.1059 20.947 17.5659 20.9303C16.2169 20.8907 14.8659 20.897 13.5169 20.9303C13.0561 20.9408 12.9081 20.8532 12.9123 20.3507C12.9394 16.8605 12.9289 13.3682 12.9248 9.87796C12.9248 8.99811 12.7809 8.14327 12.3994 7.33848C12.0199 6.53786 11.409 6.00619 10.5542 5.75808C9.63888 5.49121 8.71941 5.47661 7.80411 5.73723C6.38008 6.1438 5.53776 7.33014 5.38139 9.14197C5.33969 9.62985 5.32092 10.1219 5.32092 10.6119C5.31675 13.8665 5.3105 17.1211 5.32718 20.3757C5.32718 20.7948 5.23336 20.9408 4.78509 20.9303C3.36315 20.9011 1.93912 20.9032 0.517174 20.9303C0.116861 20.9366 -0.00406638 20.849 0.000103545 20.4278C0.0251231 18.5743 0.0105284 16.7187 0.0105284 14.4732H0.0126133Z" fill="#FAF9F6"/>
<path d="M74.2285 14.7935C74.2285 16.6283 74.214 18.4652 74.239 20.2999C74.2452 20.769 74.1639 20.9546 73.6322 20.9358C72.2666 20.8921 70.8968 20.9004 69.5311 20.9338C69.0578 20.9442 68.9161 20.8337 68.9202 20.3416C68.9432 17.0516 68.9348 13.7636 68.9307 10.4735C68.9307 9.81884 68.8994 9.16625 68.7764 8.52199C68.349 6.29526 66.9645 5.29448 64.7065 5.58846C63.0949 5.79695 62.1754 6.7185 61.8606 8.43026C61.7375 9.09536 61.7146 9.76463 61.7146 10.4381C61.7146 13.7448 61.7063 17.0536 61.725 20.3604C61.7271 20.8232 61.5833 20.9421 61.1371 20.9338C59.7151 20.9066 58.2932 20.9129 56.8712 20.9338C56.5085 20.9379 56.3729 20.8754 56.375 20.4709C56.3959 16.9452 56.3834 13.4196 56.4 9.8939C56.4042 8.7284 56.5502 7.57334 56.8629 6.44746C57.9137 2.65909 61.087 0.357295 65.1298 0.398995C66.5455 0.413589 67.9299 0.553282 69.2351 1.12456C72.0352 2.34843 73.4946 4.57934 74.0096 7.50662C74.1743 8.44068 74.2411 9.37891 74.2369 10.3276C74.2285 11.8183 74.2348 13.3091 74.2348 14.7977L74.2285 14.7935Z" fill="#FAF9F6"/>
<path d="M77.0101 14.2441C77.0414 12.6616 76.9329 10.7497 77.0768 8.84403C77.2207 6.91336 77.6856 5.07651 78.9032 3.5107C80.3731 1.61965 82.3684 0.675159 84.7161 0.449984C86.4758 0.281102 88.2209 0.404115 89.866 1.12551C92.5806 2.31394 94.0401 4.4677 94.5905 7.30741C94.7781 8.27483 94.8469 9.25268 94.8469 10.2347C94.8511 13.6165 94.8407 16.9983 94.8574 20.3801C94.8594 20.8075 94.751 20.9368 94.3111 20.9284C92.8892 20.8993 91.4651 20.8993 90.0432 20.9284C89.6241 20.9368 89.5345 20.8179 89.5365 20.4155C89.5532 17.0337 89.547 13.6519 89.547 10.2701C89.547 9.37569 89.4719 8.4875 89.1717 7.63892C88.6066 6.04184 87.143 5.29126 85.2311 5.59775C83.7466 5.83543 82.9189 6.6027 82.5561 8.09344C82.3914 8.76688 82.3247 9.45284 82.3247 10.1471C82.3288 13.5665 82.3163 16.9837 82.3393 20.403C82.3413 20.8492 82.2058 20.9347 81.793 20.9284C80.371 20.9034 78.947 20.9034 77.5251 20.9284C77.1102 20.9347 76.9976 20.8117 77.0017 20.4051C77.0205 18.4599 77.0101 16.5146 77.0101 14.242V14.2441Z" fill="#FAF9F6"/>
<path d="M97.6502 14.7665C97.6502 12.9484 97.6022 11.1303 97.6627 9.3164C97.7294 7.31067 98.1672 5.38209 99.4307 3.75165C101.155 1.52491 103.517 0.642974 106.274 0.636719C106.52 0.636719 106.58 0.732627 106.578 0.957802C106.572 2.46523 106.572 3.97474 106.578 5.48216C106.578 5.70525 106.524 5.80116 106.271 5.80533C103.878 5.85746 103.244 7.36488 103.025 8.92235C102.95 9.46027 102.931 10.0086 102.929 10.5528C102.921 13.8241 102.917 17.0954 102.936 20.3646C102.938 20.815 102.819 20.9421 102.364 20.9317C100.961 20.9004 99.5558 20.8984 98.1527 20.9317C97.6981 20.9421 97.621 20.7878 97.6252 20.3792C97.646 18.5069 97.6335 16.6367 97.6335 14.7644C97.6397 14.7644 97.6439 14.7644 97.6502 14.7644V14.7665Z" fill="#FAF9F6"/>
<path d="M111.268 21.0538C109.504 21.0433 108.074 19.6089 108.078 17.8554C108.082 16.0895 109.573 14.6154 111.335 14.6571C113.161 14.7009 114.544 16.1854 114.51 17.918C114.477 19.6756 113.051 21.0642 111.268 21.0538Z" fill="#E65300"/>
<path d="M54.0318 8.50515C53.1061 3.55129 48.073 -0.199551 42.381 0.467636C36.7287 1.13065 32.3252 6.61826 33.572 12.9211C34.4853 17.5414 38.2361 20.773 42.9877 21.1963C47.2452 21.5758 51.5569 19.0821 53.3062 15.2417C53.4355 14.9602 53.3771 14.9331 53.0998 14.9331C51.2025 14.9331 49.3072 14.9143 47.4099 14.9018C47.2431 14.9018 47.093 14.9143 46.9512 15.0269C45.7962 15.9359 44.4597 16.1424 43.0336 16.0402C41.2718 15.913 39.7394 14.8226 39.2014 13.3214C39.068 12.9524 39.1431 12.8773 39.5246 12.8794C41.8764 12.8961 44.2283 12.8877 46.5822 12.8877C48.9361 12.8877 51.2859 12.8815 53.6398 12.8961C53.9776 12.8982 54.0985 12.8148 54.1339 12.4666C54.2736 11.1405 54.2778 9.82076 54.0318 8.50724V8.50515ZM48.1126 8.64484C46.6739 8.6365 45.2353 8.64067 43.7967 8.64067C42.3581 8.64067 40.9195 8.63442 39.4808 8.64484C39.1597 8.64693 39.0993 8.58229 39.2619 8.2904C40.2481 6.52444 41.7284 5.55493 43.7738 5.56744C45.8212 5.57995 47.337 6.54112 48.3732 8.28623C48.5838 8.64067 48.3982 8.64484 48.1105 8.64484H48.1126Z" fill="#FAF9F6"/>
</svg>
