<svg width="115" height="22" viewBox="0 0 115 22" fill="none" xmlns="http://www.w3.org/2000/svg">
<path d="M0.215738 14.4732C0.282457 12.7198 0.121915 10.5743 0.313731 8.431C0.736979 3.71899 3.98952 0.612403 8.73697 0.410162C10.9116 0.318424 12.9444 0.716651 14.7104 2.06979C14.7834 2.12608 14.8584 2.17821 14.9231 2.24076C15.2233 2.5264 15.5319 3.04763 15.8196 3.03721C16.1282 3.0247 16.3992 2.49095 16.7161 2.21991C17.89 1.22955 19.2681 0.689547 20.7797 0.497731C22.6499 0.260045 24.4972 0.374718 26.2465 1.12947C29.1446 2.37628 30.6791 4.66556 31.1899 7.70543C31.3505 8.65826 31.4109 9.61942 31.4109 10.5827C31.413 13.8561 31.4026 17.1294 31.4234 20.4007C31.4255 20.8448 31.2921 20.9345 30.8772 20.9262C29.4719 20.9011 28.0667 20.8949 26.6635 20.9282C26.161 20.9408 26.063 20.7698 26.0651 20.3069C26.0839 17.0335 26.0776 13.7602 26.0734 10.4889C26.0734 9.90715 26.0588 9.32962 25.9671 8.75C25.5668 6.1855 23.9301 5.33483 21.597 5.60379C19.6893 5.82271 18.6614 7.10288 18.5029 9.28792C18.4737 9.70491 18.4696 10.124 18.4675 10.541C18.4654 13.7768 18.4508 17.0148 18.48 20.2506C18.4863 20.8282 18.309 20.947 17.769 20.9303C16.4201 20.8907 15.069 20.897 13.72 20.9303C13.2593 20.9408 13.1112 20.8532 13.1154 20.3507C13.1425 16.8605 13.1321 13.3682 13.1279 9.87796C13.1279 8.99811 12.984 8.14327 12.6025 7.33848C12.223 6.53786 11.6121 6.00619 10.7573 5.75808C9.842 5.49121 8.92254 5.47661 8.00724 5.73723C6.58321 6.1438 5.74089 7.33014 5.58451 9.14197C5.54281 9.62985 5.52405 10.1219 5.52405 10.6119C5.51988 13.8665 5.51362 17.1211 5.5303 20.3757C5.5303 20.7948 5.43648 20.9408 4.98821 20.9303C3.56627 20.9011 2.14224 20.9032 0.720299 20.9303C0.319986 20.9366 0.199059 20.849 0.203229 20.4278C0.228248 18.5743 0.213653 16.7187 0.213653 14.4732H0.215738Z" fill="#333333"/>
<path d="M74.4317 14.7935C74.4317 16.6283 74.4171 18.4652 74.4421 20.2999C74.4484 20.769 74.367 20.9546 73.8354 20.9358C72.4697 20.8921 71.0999 20.9004 69.7342 20.9338C69.261 20.9442 69.1192 20.8337 69.1234 20.3416C69.1463 17.0516 69.1379 13.7636 69.1338 10.4735C69.1338 9.81884 69.1025 9.16625 68.9795 8.52199C68.5521 6.29526 67.1677 5.29448 64.9097 5.58846C63.298 5.79695 62.3785 6.7185 62.0637 8.43026C61.9407 9.09536 61.9177 9.76463 61.9177 10.4381C61.9177 13.7448 61.9094 17.0536 61.9282 20.3604C61.9302 20.8232 61.7864 20.9421 61.3402 20.9338C59.9183 20.9066 58.4963 20.9129 57.0744 20.9338C56.7116 20.9379 56.5761 20.8754 56.5781 20.4709C56.599 16.9452 56.5865 13.4196 56.6032 9.8939C56.6073 8.7284 56.7533 7.57334 57.066 6.44746C58.1168 2.65909 61.2902 0.357295 65.3329 0.398995C66.7486 0.413589 68.133 0.553282 69.4382 1.12456C72.2383 2.34843 73.6978 4.57934 74.2127 7.50662C74.3775 8.44068 74.4442 9.37891 74.44 10.3276C74.4317 11.8183 74.4379 13.3091 74.4379 14.7977L74.4317 14.7935Z" fill="#333333"/>
<path d="M77.2132 14.2441C77.2445 12.6616 77.1361 10.7497 77.2799 8.84403C77.4238 6.91336 77.8887 5.07651 79.1064 3.5107C80.5763 1.61965 82.5716 0.675159 84.9192 0.449984C86.6789 0.281102 88.4241 0.404115 90.0691 1.12551C92.7837 2.31394 94.2432 4.4677 94.7936 7.30741C94.9813 8.27483 95.0501 9.25268 95.0501 10.2347C95.0542 13.6165 95.0438 16.9983 95.0605 20.3801C95.0626 20.8075 94.9542 20.9368 94.5142 20.9284C93.0923 20.8993 91.6683 20.8993 90.2463 20.9284C89.8272 20.9368 89.7376 20.8179 89.7397 20.4155C89.7563 17.0337 89.7501 13.6519 89.7501 10.2701C89.7501 9.37569 89.675 8.4875 89.3748 7.63892C88.8098 6.04184 87.3461 5.29126 85.4342 5.59775C83.9497 5.83543 83.122 6.6027 82.7592 8.09344C82.5945 8.76688 82.5278 9.45284 82.5278 10.1471C82.532 13.5665 82.5194 16.9837 82.5424 20.403C82.5445 20.8492 82.4089 20.9347 81.9961 20.9284C80.5742 20.9034 79.1501 20.9034 77.7282 20.9284C77.3133 20.9347 77.2007 20.8117 77.2049 20.4051C77.2236 18.4599 77.2132 16.5146 77.2132 14.242V14.2441Z" fill="#333333"/>
<path d="M97.8533 14.7665C97.8533 12.9484 97.8053 11.1303 97.8658 9.3164C97.9325 7.31067 98.3704 5.38209 99.6339 3.75165C101.358 1.52491 103.72 0.642974 106.477 0.636719C106.723 0.636719 106.783 0.732627 106.781 0.957802C106.775 2.46523 106.775 3.97474 106.781 5.48216C106.781 5.70525 106.727 5.80116 106.475 5.80533C104.081 5.85746 103.447 7.36488 103.228 8.92235C103.153 9.46027 103.135 10.0086 103.132 10.5528C103.124 13.8241 103.12 17.0954 103.139 20.3646C103.141 20.815 103.022 20.9421 102.567 20.9317C101.164 20.9004 99.759 20.8984 98.3558 20.9317C97.9013 20.9421 97.8241 20.7878 97.8283 20.3792C97.8491 18.5069 97.8366 16.6367 97.8366 14.7644C97.8429 14.7644 97.847 14.7644 97.8533 14.7644V14.7665Z" fill="#333333"/>
<path d="M111.471 21.0538C109.707 21.0433 108.277 19.6089 108.281 17.8554C108.285 16.0895 109.776 14.6154 111.538 14.6571C113.364 14.7009 114.747 16.1854 114.713 17.918C114.68 19.6756 113.254 21.0642 111.471 21.0538Z" fill="#E65300"/>
<path d="M54.2349 8.50515C53.3092 3.55129 48.2761 -0.199551 42.5841 0.467636C36.9318 1.13065 32.5284 6.61826 33.7752 12.9211C34.6884 17.5414 38.4392 20.773 43.1909 21.1963C47.4483 21.5758 51.76 19.0821 53.5093 15.2417C53.6386 14.9602 53.5802 14.9331 53.3029 14.9331C51.4056 14.9331 49.5104 14.9143 47.6131 14.9018C47.4463 14.9018 47.2961 14.9143 47.1544 15.0269C45.9993 15.9359 44.6628 16.1424 43.2367 16.0402C41.4749 15.913 39.9425 14.8226 39.4046 13.3214C39.2711 12.9524 39.3462 12.8773 39.7277 12.8794C42.0796 12.8961 44.4314 12.8877 46.7853 12.8877C49.1393 12.8877 51.489 12.8815 53.8429 12.8961C54.1807 12.8982 54.3016 12.8148 54.3371 12.4666C54.4768 11.1405 54.4809 9.82076 54.2349 8.50724V8.50515ZM48.3157 8.64484C46.8771 8.6365 45.4384 8.64067 43.9998 8.64067C42.5612 8.64067 41.1226 8.63442 39.684 8.64484C39.3629 8.64693 39.3024 8.58229 39.465 8.2904C40.4512 6.52444 41.9315 5.55493 43.9769 5.56744C46.0243 5.57995 47.5401 6.54112 48.5763 8.28623C48.7869 8.64067 48.6013 8.64484 48.3136 8.64484H48.3157Z" fill="#333333"/>
</svg>
