<svg width="184" height="43" viewBox="0 0 184 43" fill="none" xmlns="http://www.w3.org/2000/svg">
<path d="M19.1719 1.12988C8.60056 1.12988 0 10.4447 0 21.8941C0 33.3426 8.60056 42.6583 19.1719 42.6583C29.7425 42.6583 38.3438 33.3426 38.3438 21.8941C38.3438 10.4447 29.744 1.12988 19.1719 1.12988ZM23.9398 22.6251H20.8207V34.6657H16.1987C16.1987 34.6657 16.1987 28.0867 16.1987 22.6251H14.0017V18.3695H16.1987V15.617C16.1987 13.6456 17.0637 10.5652 20.8631 10.5652L24.2881 10.5794V14.7103C24.2881 14.7103 22.2069 14.7103 21.8022 14.7103C21.3975 14.7103 20.8222 14.9295 20.8222 15.8696V18.3704H24.3437L23.9398 22.6251Z" fill="white"/>
<path d="M67.5157 1.13013C56.9289 1.13013 48.3438 10.4283 48.3438 21.8943C48.3438 33.3603 56.9289 42.6585 67.5157 42.6585C78.1024 42.6585 86.6876 33.3603 86.6876 21.8943C86.6876 10.4283 78.1024 1.13013 67.5157 1.13013ZM76.2693 17.3198C76.2778 17.5242 76.2819 17.7295 76.2819 17.9358C76.2819 24.2335 71.8558 31.4957 63.7615 31.4961C61.2764 31.4961 58.9638 30.7071 57.0164 29.3552C57.3607 29.3992 57.7112 29.4211 58.066 29.4211C60.1279 29.4211 62.0253 28.6594 63.5316 27.381C61.6052 27.3423 59.981 25.9644 59.4205 24.0707C59.6888 24.1264 59.9646 24.1569 60.2475 24.1569C60.6492 24.1569 61.0382 24.0982 61.408 23.9889C59.3945 23.5523 57.8776 21.625 57.8776 19.3172C57.8776 19.2956 57.8776 19.2763 57.8782 19.2563C58.4712 19.6134 59.1493 19.8282 59.8713 19.8523C58.6897 18.9984 57.913 17.5388 57.913 15.8852C57.913 15.012 58.131 14.1939 58.5089 13.4896C60.679 16.3735 63.9221 18.27 67.5794 18.4693C67.504 18.1202 67.4651 17.7564 67.4651 17.3826C67.4651 14.7516 69.4359 12.617 71.866 12.617C73.1319 12.617 74.2751 13.1965 75.0781 14.123C76.0807 13.9088 77.0221 13.5121 77.8725 12.9662C77.5434 14.0786 76.8459 15.012 75.9373 15.6023C76.8275 15.4869 77.6759 15.2313 78.4643 14.8517C77.8754 15.8076 77.1285 16.6472 76.2693 17.3198Z" fill="white"/>
<path d="M164.203 0.804688C160.411 0.804688 156.705 2.02249 153.552 4.30409C150.399 6.58569 147.942 9.82861 146.491 13.6228C145.04 17.4169 144.66 21.5919 145.4 25.6198C146.139 29.6476 147.965 33.3475 150.647 36.2514C153.328 39.1553 156.744 41.1329 160.463 41.9341C164.182 42.7353 168.037 42.3241 171.54 40.7525C175.043 39.1809 178.037 36.5195 180.144 33.1049C182.251 29.6902 183.375 25.6757 183.375 21.5689C183.375 16.0619 181.355 10.7804 177.76 6.88638C174.164 2.99234 169.288 0.804688 164.203 0.804688ZM158.628 32.4974H154.446V17.9051H158.628V32.4974ZM156.534 15.9134C156.053 15.9155 155.582 15.7631 155.181 15.4753C154.779 15.1875 154.466 14.7773 154.279 14.2965C154.093 13.8158 154.043 13.286 154.135 12.7742C154.226 12.2625 154.456 11.7917 154.795 11.4213C155.134 11.051 155.566 10.7977 156.038 10.6935C156.51 10.5894 156.999 10.639 157.445 10.8361C157.89 11.0333 158.272 11.3691 158.542 11.8011C158.811 12.2331 158.956 12.7419 158.959 13.2632C158.96 13.9623 158.706 14.6335 158.251 15.1301C157.797 15.6267 157.18 15.9083 156.534 15.9134ZM174.294 32.4974H170.114V25.3939C170.114 23.6999 170.083 21.5279 167.939 21.5279C165.795 21.5279 165.417 23.3694 165.417 25.2709V32.4974H161.252V17.9051H165.265V19.8941H165.323C165.881 18.7466 167.245 17.5363 169.281 17.5363C173.514 17.5363 174.294 20.558 174.294 24.4813V32.4974Z" fill="white"/>
<path d="M115.859 1.12964C105.273 1.12964 96.6875 10.4278 96.6875 21.8938C96.6875 33.3598 105.273 42.658 115.859 42.658C126.446 42.658 135.031 33.3598 135.031 21.8938C135.031 10.4278 126.446 1.12964 115.859 1.12964ZM116.266 33.9834C116.265 33.9834 116.266 33.9834 116.266 33.9834H116.261C114.341 33.9824 112.453 33.4609 110.777 32.4711L104.695 34.1988L106.323 27.7607C105.318 25.8768 104.79 23.7394 104.791 21.5498C104.793 14.6997 109.941 9.12691 116.266 9.12691C119.335 9.12818 122.216 10.4221 124.383 12.7702C126.549 15.1186 127.742 18.2401 127.74 21.5596C127.738 28.4099 122.59 33.9834 116.266 33.9834Z" fill="white"/>
<path d="M116.268 11.2256C111.007 11.2256 106.729 15.8574 106.727 21.551C106.726 23.5021 107.23 25.4021 108.185 27.0462L108.412 27.4368L107.448 31.2474L111.058 30.2222L111.406 30.4458C112.87 31.3868 114.549 31.8846 116.26 31.8852H116.264C121.521 31.8852 125.799 27.2531 125.801 21.5592C125.802 18.7999 124.811 16.2056 123.011 14.2539C121.21 12.3022 118.815 11.2265 116.268 11.2256ZM121.878 25.9905C121.639 26.7154 120.494 27.3773 119.943 27.4666C119.449 27.5465 118.824 27.5797 118.137 27.3437C117.72 27.2005 117.186 27.0094 116.502 26.6897C113.626 25.3451 111.748 22.2097 111.604 22.0025C111.461 21.7953 110.434 20.3191 110.434 18.791C110.434 17.2632 111.174 16.512 111.437 16.2015C111.7 15.8907 112.011 15.8131 112.202 15.8131C112.393 15.8131 112.584 15.815 112.751 15.8238C112.927 15.8333 113.164 15.7513 113.396 16.3568C113.635 16.9784 114.209 18.5062 114.28 18.6614C114.352 18.817 114.4 18.9982 114.304 19.2054C114.209 19.4126 113.891 19.8597 113.588 20.2672C113.46 20.4379 113.294 20.59 113.462 20.9008C113.629 21.2113 114.204 22.2281 115.057 23.0512C116.152 24.1088 117.076 24.4364 117.362 24.592C117.649 24.7472 117.816 24.7212 117.984 24.5143C118.151 24.3071 118.7 23.6079 118.891 23.2971C119.082 22.9862 119.274 23.0382 119.536 23.1418C119.799 23.2451 121.209 23.9963 121.495 24.1516C121.782 24.3071 121.973 24.3848 122.045 24.5143C122.117 24.6439 122.117 25.2652 121.878 25.9905Z" fill="white"/>
</svg>
