<svg width="254" height="34" viewBox="0 0 254 34" fill="none" xmlns="http://www.w3.org/2000/svg">
<path d="M23.934 10.7742C23.5783 9.68817 23.1093 8.71505 22.5271 7.85484C21.9557 6.98387 21.2711 6.24194 20.4733 5.62903C19.6863 5.01613 18.7915 4.54839 17.7888 4.22581C16.7862 3.90323 15.6865 3.74194 14.4898 3.74194C12.5276 3.74194 10.7434 4.24731 9.13698 5.25807C7.5306 6.26882 6.25304 7.75807 5.3043 9.72581C4.35556 11.6936 3.8812 14.1075 3.8812 16.9677C3.8812 19.828 4.36096 22.2419 5.32047 24.2097C6.27999 26.1774 7.57911 27.6667 9.21784 28.6774C10.8566 29.6882 12.7001 30.1935 14.7485 30.1935C16.646 30.1935 18.3171 29.7903 19.7618 28.9839C21.2172 28.1667 22.3492 27.0161 23.1578 25.5323C23.9772 24.0376 24.3868 22.2796 24.3868 20.2581L25.6159 20.5161H15.6542V16.9677H28.268V20.5161C28.268 23.2366 27.6859 25.6021 26.5215 27.6129C25.3679 29.6237 23.7723 31.1828 21.7347 32.2903C19.7078 33.3871 17.3791 33.9355 14.7485 33.9355C11.8161 33.9355 9.2394 33.2473 7.0185 31.871C4.80837 30.4946 3.08339 28.5376 1.84357 26C0.614523 23.4624 0 20.4516 0 16.9677C0 14.3548 0.350386 12.0054 1.05116 9.91935C1.76271 7.82258 2.76535 6.03764 4.05908 4.56452C5.35282 3.0914 6.88373 1.96237 8.65183 1.17742C10.4199 0.392473 12.3659 0 14.4898 0C16.2363 0 17.8643 0.263441 19.3736 0.790322C20.8938 1.30645 22.2468 2.04301 23.4327 3C24.6294 3.94624 25.6267 5.08065 26.4245 6.40323C27.2223 7.71505 27.7721 9.17204 28.074 10.7742H23.934Z" fill="#E56217"/>
<path d="M44.7106 34C42.4681 34 40.5005 33.4677 38.8079 32.4032C37.1261 31.3387 35.8108 29.8495 34.862 27.9355C33.9241 26.0215 33.4551 23.7849 33.4551 21.2258C33.4551 18.6452 33.9241 16.3925 34.862 14.4677C35.8108 12.543 37.1261 11.0484 38.8079 9.98387C40.5005 8.91936 42.4681 8.3871 44.7106 8.3871C46.953 8.3871 48.9152 8.91936 50.597 9.98387C52.2897 11.0484 53.605 12.543 54.5429 14.4677C55.4917 16.3925 55.966 18.6452 55.966 21.2258C55.966 23.7849 55.4917 26.0215 54.5429 27.9355C53.605 29.8495 52.2897 31.3387 50.597 32.4032C48.9152 33.4677 46.953 34 44.7106 34ZM44.7106 30.5806C46.414 30.5806 47.8155 30.1452 48.9152 29.2742C50.0149 28.4032 50.8288 27.2581 51.3571 25.8387C51.8854 24.4194 52.1495 22.8817 52.1495 21.2258C52.1495 19.5699 51.8854 18.0269 51.3571 16.5968C50.8288 15.1667 50.0149 14.0108 48.9152 13.129C47.8155 12.2473 46.414 11.8065 44.7106 11.8065C43.0072 11.8065 41.6056 12.2473 40.5059 13.129C39.4063 14.0108 38.5923 15.1667 38.064 16.5968C37.5357 18.0269 37.2716 19.5699 37.2716 21.2258C37.2716 22.8817 37.5357 24.4194 38.064 25.8387C38.5923 27.2581 39.4063 28.4032 40.5059 29.2742C41.6056 30.1452 43.0072 30.5806 44.7106 30.5806Z" fill="#E56217"/>
<path d="M65.6084 0.451613V33.4839H61.7919V0.451613H65.6084Z" fill="#E56217"/>
<path d="M81.9781 34C79.9082 34 78.0808 33.4785 76.4959 32.4355C74.9111 31.3817 73.6713 29.8979 72.7765 27.9839C71.8816 26.0591 71.4342 23.7849 71.4342 21.1613C71.4342 18.5591 71.8816 16.3011 72.7765 14.3871C73.6713 12.4731 74.9165 10.9946 76.5121 9.95161C78.1077 8.9086 79.9513 8.3871 82.0428 8.3871C83.66 8.3871 84.9375 8.65592 85.8755 9.19355C86.8242 9.72043 87.5466 10.3226 88.0425 11C88.5492 11.6667 88.9427 12.2151 89.223 12.6452H89.5465V0.451613H93.363V33.4839H89.6758V29.6774H89.223C88.9427 30.129 88.5438 30.6989 88.0263 31.3871C87.5088 32.0645 86.7703 32.672 85.8108 33.2097C84.8513 33.7366 83.5737 34 81.9781 34ZM82.4956 30.5806C84.0265 30.5806 85.3203 30.1828 86.3768 29.3871C87.4334 28.5806 88.2366 27.4677 88.7864 26.0484C89.3362 24.6183 89.6112 22.9677 89.6112 21.0968C89.6112 19.2473 89.3416 17.629 88.8026 16.2419C88.2635 14.8441 87.4657 13.7581 86.4092 12.9839C85.3526 12.1989 84.0481 11.8065 82.4956 11.8065C80.8785 11.8065 79.5308 12.2204 78.4527 13.0484C77.3854 13.8656 76.5822 14.9785 76.0431 16.3871C75.5149 17.7849 75.2507 19.3548 75.2507 21.0968C75.2507 22.8602 75.5203 24.4624 76.0593 25.9032C76.6091 27.3333 77.4177 28.4731 78.4851 29.3226C79.5632 30.1613 80.9 30.5806 82.4956 30.5806Z" fill="#E56217"/>
<path d="M111.297 34C108.904 34 106.839 33.4731 105.104 32.4194C103.379 31.3548 102.047 29.871 101.109 27.9677C100.182 26.0538 99.7184 23.828 99.7184 21.2903C99.7184 18.7527 100.182 16.5161 101.109 14.5806C102.047 12.6344 103.352 11.1183 105.023 10.0323C106.705 8.93548 108.667 8.3871 110.909 8.3871C112.203 8.3871 113.48 8.60215 114.742 9.03226C116.003 9.46237 117.151 10.1613 118.186 11.129C119.221 12.086 120.046 13.3548 120.661 14.9355C121.275 16.5161 121.582 18.4624 121.582 20.7742V22.3871H102.435V19.0968H117.701C117.701 17.6989 117.421 16.4516 116.86 15.3548C116.311 14.2581 115.524 13.3925 114.499 12.7581C113.486 12.1237 112.289 11.8065 110.909 11.8065C109.389 11.8065 108.074 12.1828 106.963 12.9355C105.864 13.6774 105.017 14.6452 104.424 15.8387C103.831 17.0323 103.535 18.3118 103.535 19.6774V21.871C103.535 23.7419 103.858 25.328 104.505 26.629C105.163 27.9194 106.074 28.9032 107.238 29.5806C108.403 30.2473 109.756 30.5806 111.297 30.5806C112.3 30.5806 113.206 30.4409 114.014 30.1613C114.834 29.871 115.54 29.4409 116.133 28.871C116.726 28.2903 117.184 27.5699 117.507 26.7097L121.194 27.7419C120.806 28.9893 120.154 30.086 119.238 31.0323C118.321 31.9677 117.189 32.6989 115.842 33.2258C114.494 33.7419 112.979 34 111.297 34Z" fill="#E56217"/>
<path d="M131.205 18.5806V33.4839H127.388V8.70968H131.075V12.5806H131.399C131.981 11.3226 132.865 10.3118 134.051 9.54839C135.237 8.77419 136.768 8.3871 138.644 8.3871C140.325 8.3871 141.797 8.73118 143.058 9.41936C144.32 10.0968 145.301 11.129 146.002 12.5161C146.702 13.8925 147.053 15.6344 147.053 17.7419V33.4839H143.236V18C143.236 16.0538 142.73 14.5376 141.716 13.4516C140.703 12.3548 139.312 11.8065 137.544 11.8065C136.326 11.8065 135.237 12.0699 134.277 12.5968C133.329 13.1237 132.579 13.8925 132.029 14.9032C131.48 15.914 131.205 17.1398 131.205 18.5806Z" fill="#E56217"/>
<path d="M158.248 33.4839L149.192 0.451613H153.267L160.188 27.3548H160.512L167.563 0.451613H172.091L179.141 27.3548H179.465L186.386 0.451613H190.462L181.405 33.4839H177.266L169.956 7.16129H169.697L162.388 33.4839H158.248Z" fill="#E56217"/>
<path d="M236.923 24.4516L236.858 19.7419H237.634L248.502 8.70968H253.224L241.645 20.3871H241.321L236.923 24.4516ZM233.365 33.4839V0.451613H237.181V33.4839H233.365ZM249.149 33.4839L239.446 21.2258L242.162 18.5806L254 33.4839H249.149Z" fill="#E56217"/>
<path fill-rule="evenodd" clip-rule="evenodd" d="M210.622 15.8505H210.621C206.923 15.8505 203.924 12.86 203.924 9.17116C203.924 5.48227 206.923 2.49184 210.621 2.49184C214.32 2.49184 217.318 5.48227 217.318 9.17116C217.318 11.3318 216.29 13.2528 214.694 14.4737C215.266 14.9938 215.626 15.7442 215.626 16.5714C215.626 18.1219 214.362 19.4025 212.807 19.4025H206.373C205.895 19.4025 205.506 19.7628 205.506 20.2398C205.506 20.7169 205.895 21.0772 206.373 21.0772H208.318C208.916 21.0772 209.402 21.5631 209.402 22.1604C209.402 22.6211 209.112 23.0154 208.705 23.1711C208.585 23.2172 208.454 23.2304 208.318 23.2304H206.373C206.147 23.2304 205.927 23.2103 205.715 23.1634C204.357 22.8626 203.337 21.6575 203.337 20.2132C203.337 18.5436 204.699 17.1695 206.373 17.1695H212.807C213.166 17.1695 213.458 16.8892 213.458 16.5315C213.458 16.1738 213.166 15.8935 212.807 15.8935H210.928C210.822 15.8935 210.719 15.8785 210.622 15.8505ZM215.175 9.17116C215.175 11.6796 213.137 13.7131 210.621 13.7131C208.106 13.7131 206.068 11.6796 206.068 9.17116C206.068 6.66272 208.106 4.62922 210.621 4.62922C213.137 4.62922 215.175 6.66272 215.175 9.17116Z" fill="#E56217"/>
<path d="M223.926 17.4058C224.359 17.1594 224.911 17.323 225.158 17.7554C225.405 18.1879 225.254 18.7297 224.82 18.9761L217.445 23.1505H213.794L223.926 17.4058Z" fill="#E56217"/>
<path d="M196.258 24.267H225.163C225.762 24.267 226.248 24.7463 226.248 25.3435C226.248 25.9408 225.762 26.4201 225.163 26.4201L222.907 26.4202L221.607 30.7079C221.143 32.2346 219.732 33.2786 218.133 33.2786H203.289C201.689 33.2786 200.278 32.2325 199.814 30.7058L198.514 26.4202H196.258C195.659 26.4202 195.174 25.9409 195.174 25.3436C195.174 24.7463 195.659 24.267 196.258 24.267Z" fill="#E56217"/>
</svg>
