<svg width="157" height="157" viewBox="0 0 157 157" fill="none" xmlns="http://www.w3.org/2000/svg">
<circle cx="78.5" cy="78.5" r="73.5" fill="#593625" stroke="#F5ECE5" stroke-width="10"/>
<g clip-path="url(#clip0_501_3515)">
<path d="M83.5233 87.2227C82.6932 87.2227 82.0194 87.8965 82.0194 88.7266C82.0194 89.5566 82.6932 90.2305 83.5233 90.2305C84.3534 90.2305 85.0272 89.5566 85.0272 88.7266C85.0272 87.8965 84.3534 87.2227 83.5233 87.2227Z" fill="#F5ECE5"/>
<path d="M93.482 49.9587C92.2236 48.5952 88.2083 46.0156 82.0194 46.0156C81.1887 46.0156 80.5155 46.6889 80.5155 47.5195C80.5155 48.3502 81.1887 49.0234 82.0194 49.0234C87.3306 49.0234 90.5593 51.227 91.2713 51.9983C91.8347 52.6087 92.7864 52.6469 93.3968 52.0841C94.0071 51.5207 94.0453 50.569 93.482 49.9587Z" fill="#F5ECE5"/>
<path d="M93.8785 67.0597C91.4534 66.1045 87.427 64.9648 82.0194 64.9648C81.1893 64.9648 80.5155 65.6381 80.5155 66.4687C80.5155 67.2994 81.1893 67.9726 82.0194 67.9726C90.8678 67.9726 96.2789 71.3065 97.2493 72.5208C97.7669 73.1687 98.7127 73.2762 99.363 72.7569C100.012 72.2388 100.117 71.2924 99.5992 70.6432C98.8502 69.7062 96.9539 68.2723 93.8785 67.0597Z" fill="#F5ECE5"/>
<path d="M103.297 85.3061C100.607 84.0854 97.5473 83.1184 94.2551 82.4305C99.5858 80.7533 106.082 77.1245 106.082 71.5824C106.082 65.3847 98.0578 61.575 91.9858 60.1011C92.8623 59.7433 93.6965 59.3385 94.4749 58.8844C98.0284 56.8125 100.066 53.931 100.066 50.979C100.066 48.0276 98.0284 45.1455 94.4749 43.0735C91.0764 41.092 86.6528 40.0005 82.0195 40.0005C77.3862 40.0005 72.9626 41.092 69.5647 43.0735C66.0106 45.1461 63.9727 48.027 63.9727 50.979C63.9727 53.931 66.0106 56.8125 69.5647 58.8844C70.3431 59.3385 71.1773 59.7433 72.0532 60.1011C65.9871 61.5738 57.9571 65.3818 57.9571 71.5824C57.9571 77.1275 64.465 80.7709 69.8538 82.4534C66.121 83.2582 62.7443 84.4378 59.9345 85.9394C58.1233 83.3023 55.9797 81.608 55.8763 81.527C55.3317 81.1005 54.5668 81.1005 54.0228 81.527C53.7978 81.7026 48.9689 85.5382 47.7235 90.7924C42.3588 90.2672 37.0282 93.1381 36.7826 93.2721C36.1252 93.6316 35.8327 94.4206 36.097 95.122C36.2057 95.4116 38.6078 101.669 43.2553 104.56C41.1563 109.561 42.8053 115.621 42.8834 115.901C43.0661 116.554 43.6606 117 44.3315 117C44.3591 117 44.3873 116.999 44.4155 116.998C44.6998 116.982 50.8453 116.597 54.9463 113.069C59.0304 116.597 65.1981 116.982 65.4836 116.998C65.5118 116.999 65.54 117 65.5676 117C66.2409 117 66.8366 116.551 67.0169 115.895C67.0574 115.749 67.8282 112.889 67.6707 109.509C72.0467 110.673 76.9568 111.285 82.0201 111.285C89.9173 111.285 97.4738 109.83 103.297 107.187C109.554 104.347 113 100.461 113 96.2464C113 92.0308 109.554 88.1459 103.297 85.3061ZM71.0798 56.2861C68.4744 54.7669 66.9805 52.833 66.9805 50.979C66.9805 49.1255 68.4744 47.191 71.0798 45.6718C74.0253 43.9541 77.9102 43.0083 82.0195 43.0083C86.1288 43.0083 90.0137 43.9541 92.9592 45.6718C95.5646 47.191 97.0585 49.1255 97.0585 50.979C97.0585 52.833 95.5646 54.7669 92.9592 56.2861C90.0137 58.0038 86.1288 58.9496 82.0195 58.9496C77.9102 58.9496 74.0253 58.0038 71.0798 56.2861ZM60.9649 71.5824C60.9649 67.039 69.9689 61.9575 82.0195 61.9575C94.0701 61.9575 103.074 67.039 103.074 71.5824C103.074 76.1258 94.0701 81.2074 82.0195 81.2074C69.9689 81.2074 60.9649 76.1258 60.9649 71.5824ZM65.1159 101.981C63.5726 100.078 61.2833 98.6544 58.3001 97.7386C57.9083 97.3032 57.4383 96.9531 56.919 96.7011C60.6882 92.6588 65.3873 93.2263 70.2109 95.8146C69.4267 97.436 67.7236 100.387 65.1159 101.981ZM54.9493 102.262C54.1274 102.262 53.4542 101.602 53.4454 100.76C53.4465 100.743 53.4471 100.727 53.4477 100.711C53.4712 99.891 54.1409 99.2542 54.9493 99.2542C55.7858 99.2542 56.4532 99.9421 56.4532 100.758C56.4532 101.559 55.8075 102.262 54.9493 102.262ZM54.9499 84.721C55.8211 85.5552 57.1346 86.9657 58.121 88.7022C58.6579 89.6457 59.0315 90.5768 59.2465 91.4833C56.4496 92.5495 54.4217 94.7695 53.1293 96.6324C52.5847 96.8709 52.103 97.2093 51.703 97.624C49.6885 93.977 49.6515 89.7937 54.9499 84.721ZM39.4726 95.3264C41.1827 94.5962 44.3902 93.48 47.4462 93.7873C47.6119 96.7781 49.0976 99.4034 50.464 101.215C50.5239 101.806 50.6996 102.368 50.9716 102.878C46.669 103.711 42.8617 102.333 39.4726 95.3264ZM45.5146 113.843C45.1939 112.029 44.8373 108.574 46.0181 105.749C48.6376 106.435 51.4445 106.047 54.0023 105.165C54.3125 105.232 54.6285 105.27 54.9493 105.27C55.2107 105.27 55.468 105.247 55.72 105.205C55.2095 109.276 52.9384 112.687 45.5146 113.843ZM64.3798 113.843C62.5751 113.564 59.2383 112.798 56.9284 110.807C58.2432 108.753 58.8841 106.143 58.8389 103.036C59.1414 102.523 59.3364 101.961 59.4163 101.372C62.2391 102.689 63.8581 104.59 64.4456 107.714C64.8874 110.043 64.6236 112.436 64.3798 113.843ZM102.054 104.448C96.6913 106.882 89.3892 108.278 82.0195 108.278C76.7229 108.278 71.6203 107.579 67.1978 106.252C67.0469 105.665 66.8624 105.104 66.6421 104.573C71.2801 101.761 73.4384 95.9779 73.5366 95.7101C73.7739 95.0603 73.5371 94.3325 72.9632 93.9465C72.7264 93.7867 67.5762 90.3724 62.1833 90.8206C62.0076 90.0698 61.7509 89.3144 61.4149 88.5583C66.6204 85.7878 74.0277 84.2152 82.0195 84.2152C89.3892 84.2152 96.6913 85.6116 102.054 88.0449C107.098 90.3348 109.992 93.3238 109.992 96.2464C109.992 99.169 107.099 102.158 102.054 104.448Z" fill="#F5ECE5"/>
<path d="M101.889 91.3443C98.5558 89.6789 94.2386 88.4035 89.731 87.7538C88.9074 87.6357 88.146 88.2061 88.0279 89.028C87.9093 89.8498 88.4797 90.6123 89.3022 90.731C94.2979 91.4512 97.8433 92.766 99.9376 93.7423C102.514 94.9431 103.739 96.0352 103.989 96.4388C104.083 97.1784 104.715 97.75 105.48 97.75C106.311 97.75 106.984 97.0768 106.984 96.2461C106.984 94.2998 104.213 92.5063 101.889 91.3443Z" fill="#F5ECE5"/>
</g>
<defs>
<clipPath id="clip0_501_3515">
<rect width="77" height="77" fill="white" transform="translate(36 40)"/>
</clipPath>
</defs>
</svg>
