<svg width="564" height="349" viewBox="0 0 564 349" fill="none" xmlns="http://www.w3.org/2000/svg">
<g filter="url(#filter0_d_79_319)">
<path d="M132.49 92.5321C131.417 89.2529 130.001 86.3146 128.245 83.7172C126.521 81.0874 124.455 78.8472 122.047 76.9965C119.673 75.1459 116.972 73.7336 113.947 72.7596C110.922 71.7856 107.603 71.2986 103.992 71.2986C98.0715 71.2986 92.6875 72.8245 87.8402 75.8764C82.993 78.9283 79.138 83.425 76.2752 89.3665C73.4124 95.308 71.981 102.597 71.981 111.233C71.981 119.869 73.4287 127.158 76.324 133.1C79.2193 139.041 83.1394 143.538 88.0842 146.59C93.0291 149.642 98.592 151.168 104.773 151.168C110.499 151.168 115.541 149.95 119.9 147.515C124.292 145.048 127.708 141.574 130.148 137.093C132.62 132.58 133.856 127.272 133.856 121.168L137.565 121.947H107.506V111.233H145.568V121.947C145.568 130.161 143.811 137.304 140.298 143.376C136.817 149.447 132.002 154.155 125.854 157.499C119.738 160.81 112.711 162.466 104.773 162.466C95.9244 162.466 88.1493 160.388 81.4477 156.233C74.7787 152.077 69.5736 146.168 65.8325 138.506C62.1238 130.843 60.2695 121.752 60.2695 111.233C60.2695 103.344 61.3268 96.2496 63.4414 89.9509C65.5885 83.6198 68.6139 78.2303 72.5178 73.7823C76.4216 69.3343 81.0411 65.9253 86.3763 63.5552C91.7115 61.1851 97.5835 60 103.992 60C109.262 60 114.175 60.7954 118.729 62.3863C123.316 63.9448 127.399 66.1688 130.977 69.0583C134.588 71.9154 137.598 75.3407 140.005 79.3342C142.412 83.2952 144.071 87.6945 144.982 92.5321H132.49Z" fill="#F49507"/>
<path d="M195.183 162.661C188.416 162.661 182.479 161.054 177.372 157.84C172.297 154.625 168.328 150.129 165.465 144.35C162.635 138.57 161.22 131.817 161.22 124.09C161.22 116.298 162.635 109.496 165.465 103.685C168.328 97.8729 172.297 93.36 177.372 90.1457C182.479 86.9315 188.416 85.3244 195.183 85.3244C201.95 85.3244 207.87 86.9315 212.945 90.1457C218.053 93.36 222.022 97.8729 224.852 103.685C227.715 109.496 229.146 116.298 229.146 124.09C229.146 131.817 227.715 138.57 224.852 144.35C222.022 150.129 218.053 154.625 212.945 157.84C207.87 161.054 201.95 162.661 195.183 162.661ZM195.183 152.337C200.323 152.337 204.552 151.022 207.87 148.392C211.189 145.762 213.645 142.304 215.239 138.019C216.833 133.733 217.63 129.09 217.63 124.09C217.63 119.09 216.833 114.431 215.239 110.113C213.645 105.795 211.189 102.305 207.87 99.6424C204.552 96.9801 200.323 95.6489 195.183 95.6489C190.043 95.6489 185.814 96.9801 182.496 99.6424C179.177 102.305 176.721 105.795 175.127 110.113C173.533 114.431 172.736 119.09 172.736 124.09C172.736 129.09 173.533 133.733 175.127 138.019C176.721 142.304 179.177 145.762 182.496 148.392C185.814 151.022 190.043 152.337 195.183 152.337Z" fill="#F49507"/>
<path d="M258.242 61.3636V161.103H246.726V61.3636H258.242Z" fill="#F49507"/>
<path d="M307.637 162.661C301.391 162.661 295.877 161.086 291.095 157.937C286.313 154.755 282.572 150.275 279.871 144.496C277.171 138.684 275.821 131.817 275.821 123.895C275.821 116.038 277.171 109.22 279.871 103.441C282.572 97.6619 286.329 93.1976 291.144 90.0483C295.958 86.899 301.521 85.3244 307.833 85.3244C312.712 85.3244 316.567 86.136 319.398 87.7594C322.26 89.3503 324.44 91.1685 325.937 93.2139C327.466 95.2268 328.653 96.8827 329.499 98.1814H330.475V61.3636H341.991V161.103H330.865V149.609H329.499C328.653 150.973 327.449 152.694 325.888 154.772C324.326 156.817 322.098 158.651 319.202 160.275C316.307 161.866 312.452 162.661 307.637 162.661ZM309.199 152.337C313.818 152.337 317.722 151.135 320.91 148.733C324.098 146.298 326.522 142.937 328.181 138.652C329.84 134.334 330.67 129.35 330.67 123.701C330.67 118.116 329.857 113.23 328.23 109.042C326.603 104.821 324.196 101.542 321.008 99.2041C317.82 96.834 313.883 95.6489 309.199 95.6489C304.319 95.6489 300.253 96.8989 296.999 99.3989C293.779 101.866 291.355 105.227 289.729 109.48C288.135 113.701 287.338 118.441 287.338 123.701C287.338 129.025 288.151 133.863 289.777 138.213C291.437 142.531 293.876 145.973 297.097 148.538C300.35 151.07 304.384 152.337 309.199 152.337Z" fill="#F49507"/>
<path d="M396.108 162.661C388.886 162.661 382.656 161.07 377.418 157.888C372.213 154.674 368.195 150.194 365.365 144.447C362.567 138.668 361.168 131.947 361.168 124.285C361.168 116.623 362.567 109.87 365.365 104.025C368.195 98.1489 372.132 93.571 377.174 90.2918C382.249 86.9802 388.17 85.3244 394.937 85.3244C398.84 85.3244 402.695 85.9737 406.502 87.2724C410.308 88.5711 413.772 90.6814 416.895 93.6035C420.019 96.4931 422.507 100.324 424.362 105.097C426.216 109.87 427.143 115.746 427.143 122.727V127.597H369.366V117.662H415.432C415.432 113.441 414.586 109.675 412.894 106.363C411.235 103.051 408.86 100.438 405.77 98.5223C402.712 96.6067 399.101 95.6489 394.937 95.6489C390.35 95.6489 386.381 96.7853 383.03 99.058C379.712 101.298 377.158 104.22 375.369 107.824C373.579 111.428 372.685 115.292 372.685 119.415V126.038C372.685 131.687 373.661 136.476 375.613 140.405C377.597 144.301 380.346 147.272 383.859 149.317C387.373 151.33 391.456 152.337 396.108 152.337C399.133 152.337 401.866 151.914 404.306 151.07C406.778 150.194 408.909 148.895 410.698 147.174C412.487 145.421 413.87 143.246 414.846 140.648L425.972 143.765C424.801 147.531 422.833 150.843 420.067 153.7C417.302 156.525 413.886 158.733 409.82 160.323C405.753 161.882 401.183 162.661 396.108 162.661Z" fill="#F49507"/>
<path d="M456.178 116.103V161.103H444.661V86.2984H455.787V97.9866H456.763C458.52 94.1879 461.188 91.136 464.766 88.8308C468.345 86.4932 472.964 85.3244 478.625 85.3244C483.7 85.3244 488.14 86.3633 491.946 88.4412C495.753 90.4866 498.713 93.6035 500.828 97.7917C502.942 101.948 503.999 107.207 503.999 113.571V161.103H492.483V114.35C492.483 108.473 490.954 103.896 487.896 100.616C484.838 97.3047 480.642 95.6489 475.306 95.6489C471.63 95.6489 468.345 96.4444 465.449 98.0352C462.586 99.6261 460.325 101.948 458.666 104.999C457.007 108.051 456.178 111.753 456.178 116.103Z" fill="#F49507"/>
<path d="M92.3261 289L64.9994 189.261H77.2964L98.1818 270.494H99.1578L120.434 189.261H134.097L155.373 270.494H156.349L177.234 189.261H189.531L162.204 289H149.712L127.656 209.52H126.875L104.818 289H92.3261Z" fill="#F49507"/>
<path d="M329.727 261.728L329.532 247.507H331.874L364.666 214.196H378.915L343.976 249.455H343L329.727 261.728ZM318.992 289V189.261H330.508V289H318.992ZM366.618 289L337.339 251.987L345.537 244.001L381.257 289H366.618Z" fill="#F49507"/>
<path fill-rule="evenodd" clip-rule="evenodd" d="M247.965 231.705H247.962C235.839 231.705 226.012 221.897 226.012 209.799C226.012 197.7 235.839 187.892 247.962 187.892C260.085 187.892 269.912 197.7 269.912 209.799C269.912 216.885 266.541 223.186 261.311 227.19C263.186 228.895 264.366 231.357 264.366 234.07C264.366 239.155 260.221 243.355 255.125 243.355H234.038C232.471 243.355 231.195 244.536 231.195 246.101C231.195 247.666 232.471 248.847 234.038 248.847H240.41C242.373 248.847 243.964 250.441 243.964 252.4C243.964 253.911 243.016 255.204 241.681 255.715C241.286 255.866 240.859 255.909 240.41 255.909H234.038C233.298 255.909 232.576 255.844 231.881 255.689C227.428 254.703 224.087 250.751 224.087 246.014C224.087 240.538 228.551 236.031 234.038 236.031H255.125C256.301 236.031 257.258 235.112 257.258 233.939C257.258 232.765 256.301 231.846 255.125 231.846H248.965C248.618 231.846 248.282 231.797 247.965 231.705ZM247.224 225.234C247.739 224.947 248.333 224.784 248.965 224.784H251.756C258.473 223.095 263.446 217.026 263.446 209.799C263.446 201.264 256.514 194.346 247.962 194.346C239.411 194.346 232.479 201.264 232.479 209.799C232.479 218.086 239.015 224.85 247.224 225.234Z" fill="#F49507"/>
<path d="M291.569 236.806C292.99 235.998 294.798 236.535 295.608 237.953C296.418 239.371 295.922 241.148 294.501 241.956L270.326 255.647H258.361L291.569 236.806Z" fill="#F49507"/>
<path d="M200.884 259.309H295.625C297.588 259.309 299.179 260.881 299.179 262.84C299.179 264.799 297.587 266.371 295.625 266.371L288.23 266.371L283.969 280.434C282.449 285.441 277.824 288.865 272.582 288.865H223.928C218.685 288.865 214.061 285.434 212.54 280.427L208.28 266.371H200.884C198.921 266.371 197.33 264.799 197.33 262.84C197.33 260.881 198.922 259.309 200.884 259.309Z" fill="#F49507"/>
</g>
<defs>
<filter id="filter0_d_79_319" x="0.269531" y="0" width="563.73" height="349" filterUnits="userSpaceOnUse" color-interpolation-filters="sRGB">
<feFlood flood-opacity="0" result="BackgroundImageFix"/>
<feColorMatrix in="SourceAlpha" type="matrix" values="0 0 0 0 0 0 0 0 0 0 0 0 0 0 0 0 0 0 127 0" result="hardAlpha"/>
<feOffset/>
<feGaussianBlur stdDeviation="30"/>
<feComposite in2="hardAlpha" operator="out"/>
<feColorMatrix type="matrix" values="0 0 0 0 0 0 0 0 0 0 0 0 0 0 0 0 0 0 0.8 0"/>
<feBlend mode="normal" in2="BackgroundImageFix" result="effect1_dropShadow_79_319"/>
<feBlend mode="normal" in="SourceGraphic" in2="effect1_dropShadow_79_319" result="shape"/>
</filter>
</defs>
</svg>
